# xmcd CD database file
#
# Track frame offsets:
#	150
#	13831
#	32607
#	46514
#	58297
#	66875
#	76498
#	87086
#	104835
#	112490
#	123715
#	133161
#	141091
#	153919
#	167966
#	175604
#	186697
#	202360
#	216219
#	226124
#	235824
#	246057
#	257352
#	265115
#	280189
#	295646
#	309536
#	320587
#	332589
#
# Disc length: 4597 seconds
#
# Revision: 0
# Processed by: cddbd v1.5.2PL0 Copyright (c) Steve Scherf et al.
# Submitted via: CDex 1.70beta2
#
DISCID=b611f31d
DTITLE=Greenhorns - Zlata Era 1967-1974 [CD2)
DYEAR=2007
DGENRE=Country
TTITLE0=Blízko Little Big Hornu (Jim Bridger Story)
TTITLE1=Oranžový expres (Orange Blossom Special)
TTITLE2=Nečekej už dál (Ribbon Of Darkness)
TTITLE3=Poslední den (Ramblin' Man) 
TTITLE4=Za chvíli už budu v dáli (Rise And Shine)
TTITLE5=Já v poslední době (Cora Is Gone)
TTITLE6=Když náš táta hrál (When Papa Played The Dobro)
TTITLE7=Co se bude dít (I'll Be Your Baby Tonight) 
TTITLE8=Kamarád (Goodbye, Old Pal) 
TTITLE9=Šest bílých koní (Six White Horses)
TTITLE10=Žádnej vlak (I'm Leavin') 
TTITLE11=Lodní zvon zvoní (I Saw The Light)
TTITLE12=Blues hvízdavého vlaku (Train Whistle Blues)
TTITLE13=Modlitba (Maiden's Prayer)
TTITLE14=Šlapej dál (I Got Stripes)
TTITLE15=Toulavej song (Gentle On My Mind)
TTITLE16=Poslední sklenka (Ol'Blue)
TTITLE17=Na Vánoce ráno (The Christmas Day)
TTITLE18=Značkovací železo (Cowpoke)
TTITLE19=Šest dní na silnici (Six Days On The Road)
TTITLE20=Tak já jdu dál (There Is A Time)
TTITLE21=Neváhej (Lovesick Blues)
TTITLE22=Vlak v 0.5 (Cocaine Blues)
TTITLE23=Divnej smích (Laughing The Blues)
TTITLE24=El Paso (El Paso)
TTITLE25=A slunce pálí jen (One Dyin' And Buryin')
TTITLE26=Casey Jones (Casey Jones)
TTITLE27=Bílej sníh (North To Alaska)
TTITLE28=Bluegrassový part č. 1 (Bluegrass Part No. 1)
EXTD=YEAR: 2007
EXTT0=
EXTT1=
EXTT2=
EXTT3=
EXTT4=
EXTT5=
EXTT6=
EXTT7=
EXTT8=
EXTT9=
EXTT10=
EXTT11=
EXTT12=
EXTT13=
EXTT14=
EXTT15=
EXTT16=
EXTT17=
EXTT18=
EXTT19=
EXTT20=
EXTT21=
EXTT22=
EXTT23=
EXTT24=
EXTT25=
EXTT26=
EXTT27=
EXTT28=
PLAYORDER=
